<svg width="104" height="134" viewBox="0 0 104 134" fill="none" xmlns="http://www.w3.org/2000/svg">
<path d="M31.3389 101.909C18.6139 99.5208 7.54117 92.4188 0 82.482C8.0507 110.538 33.1269 131.368 63.3054 133.022C49.9692 125.842 38.8727 115.03 31.3389 101.909V101.909ZM52.7035 0.0224609C52.0112 0.0224609 51.3128 0.0384332 50.6289 0.0622141C49.9366 0.0930939 49.2531 0.133202 48.5696 0.189282H48.5621C47.9584 0.236844 47.3691 0.292925 46.7816 0.356459C33.6109 1.87666 21.9595 8.3898 13.7657 17.9512C13.2799 18.5251 12.8029 19.1061 12.3349 19.695C12.326 19.7109 12.3189 19.7198 12.3115 19.7273C5.48323 28.4527 1.41448 39.4488 1.41448 51.3996C1.41448 71.0724 12.4458 88.1581 28.6517 96.7981C23.5022 86.1289 20.6084 74.1618 20.6084 61.5111C20.6084 37.2109 31.2755 15.4119 48.1649 0.539962H48.1724C73.042 4.1071 92.1417 25.5156 92.1417 51.3996C92.1417 77.7762 72.3273 99.4956 46.7816 102.45C48.729 102.674 50.6998 102.784 52.7035 102.784C81.0377 102.784 104 79.783 104 51.3996C104 23.0239 81.0377 0.0224609 52.7035 0.0224609Z" fill="#4A4F6F"/>
</svg>
