<svg width="148" height="67" viewBox="0 0 148 67" fill="none" xmlns="http://www.w3.org/2000/svg">
<path d="M52.4809 25.8817C52.4809 40.1801 40.8935 51.7673 26.5953 51.7673C25.5841 51.7673 24.5896 51.7116 23.6069 51.5991C36.498 50.1105 46.4968 39.1692 46.4968 25.8817C46.4968 12.8424 36.8586 2.05768 24.3087 0.260696H24.305C15.7821 7.75258 10.3992 18.734 10.3992 30.9755C10.3992 37.3484 11.8595 43.377 14.458 48.7516C6.28008 44.3992 0.713379 35.7921 0.713379 25.8817C0.713379 19.8614 2.76658 14.322 6.21232 9.92648C6.21607 9.92273 6.21965 9.91826 6.22412 9.91021C6.46032 9.61358 6.70099 9.32087 6.94613 9.03175C11.081 4.21513 16.9606 0.934072 23.6069 0.168255C23.9034 0.136249 24.2007 0.107998 24.5054 0.0840379H24.5091C24.8541 0.0557869 25.199 0.035582 25.5484 0.0200261C25.8934 0.00804618 26.2459 0 26.5953 0C40.8935 0 52.4809 11.5872 52.4809 25.8817Z" fill="#254982"/>
<path d="M10.3992 30.9767C10.3992 37.3496 11.8595 43.3782 14.458 48.7528C6.28008 44.4004 0.713379 35.7933 0.713379 25.8829C0.713379 19.8626 2.76658 14.3233 6.21232 9.92772C6.21607 9.92396 6.21965 9.91949 6.22412 9.91145C6.46032 9.61481 6.70099 9.32211 6.94613 9.03298C11.081 4.21636 16.9606 0.935312 23.6069 0.169495C23.8393 0.197924 24.0718 0.22546 24.305 0.261936C15.7821 7.75382 10.3992 18.7352 10.3992 30.9767Z" fill="#254982"/>
<path d="M15.8145 51.3264C9.39311 50.1232 3.80549 46.5455 0 41.5397C4.0626 55.6735 16.7167 66.1664 31.9457 67C25.2158 63.383 19.6162 57.9361 15.8145 51.3264ZM26.5957 0C26.2463 0 25.8939 0.00804618 25.5488 0.020026C25.1994 0.035582 24.8545 0.0557868 24.5096 0.0840379H24.5058C24.2011 0.107998 23.9038 0.136249 23.6073 0.168255C16.961 0.934072 11.0814 4.21513 6.94653 9.03175C6.70139 9.32087 6.46072 9.61357 6.22452 9.91021C6.22005 9.91826 6.21648 9.92273 6.21272 9.92648C2.76699 14.322 0.713785 19.8614 0.713785 25.8817C0.713785 35.7921 6.28049 44.3992 14.4584 48.7516C11.8599 43.3769 10.3996 37.3484 10.3996 30.9755C10.3996 18.734 15.7825 7.75258 24.3054 0.260696H24.3091C36.859 2.05768 46.4973 12.8424 46.4973 25.8817C46.4973 39.1692 36.4984 50.1105 23.6073 51.5991C24.59 51.7115 25.5845 51.7673 26.5957 51.7673C40.8939 51.7673 52.4813 40.1801 52.4813 25.8817C52.4813 11.5872 40.8939 0 26.5957 0Z" fill="#007BC1"/>
<path d="M52.482 25.8856C52.482 40.181 40.8947 51.7705 26.5971 51.7705C25.5855 51.7705 24.5863 51.7131 23.6045 51.6005C36.4932 50.1157 46.4973 39.17 46.4973 25.8856C46.4973 12.8433 36.8553 2.05553 24.3061 0.262305C24.3741 0.20187 24.4404 0.142328 24.5082 0.0842167C25.198 0.028251 25.8932 0 26.5971 0C40.8947 0 52.482 11.5895 52.482 25.8856Z" fill="#23284C"/>
<path d="M65.7828 44.0641C67.1111 44.5775 68.4702 44.8337 69.8612 44.8337C70.65 44.8337 71.3236 44.7591 71.8807 44.6095C72.4381 44.4589 72.9865 44.1714 73.525 43.746C74.0638 43.3205 74.4743 42.6553 74.7566 41.7479C75.0382 40.8419 75.1799 39.6952 75.1799 38.3066C75.1799 36.8195 75.0382 35.5844 74.7566 34.6031C74.4743 33.622 74.0704 32.9053 73.5445 32.4553C73.0178 32.0052 72.4978 31.6998 71.9845 31.5359C71.4704 31.3742 70.8818 31.2923 70.2179 31.2923C67.261 31.2923 65.7828 32.2489 65.7828 34.1622V44.0641ZM62.2754 54.9808V34.3871C62.2754 33.9744 62.3126 33.5646 62.3879 33.1585C62.4624 32.7525 62.653 32.237 62.9586 31.6119C63.2647 30.9861 63.6797 30.4362 64.2049 29.961C64.7288 29.4855 65.5155 29.0759 66.5644 28.7324C67.6134 28.3882 68.8323 28.2169 70.2179 28.2169C70.9302 28.2169 71.6261 28.2788 72.307 28.4047C72.9879 28.5289 73.7306 28.8107 74.5362 29.2479C75.3415 29.6853 76.0381 30.2553 76.6251 30.9548C77.2121 31.6559 77.7031 32.6393 78.0958 33.9081C78.4899 35.1783 78.6866 36.6438 78.6866 38.3066C78.6866 40.2072 78.4273 41.8298 77.9088 43.1746C77.3902 44.5178 76.675 45.5146 75.7631 46.1658C74.8512 46.8154 73.9238 47.2812 72.9813 47.5626C72.0381 47.8444 70.9973 47.9844 69.8612 47.9844C68.4448 47.9844 67.0852 47.7967 65.7828 47.4212V54.9808H62.2754Z" fill="#23284C"/>
<path d="M85.8692 21.2192H82.3623V47.6837H85.8692V21.2192Z" fill="#23284C"/>
<path d="M92.6756 41.5891C92.6756 43.7519 94.2105 44.8337 97.2798 44.8337H97.3365C100.231 44.8337 101.678 43.7959 101.678 41.7204V38.6247C100.755 38.4751 99.6445 38.3946 98.3475 38.3826C97.8358 38.3826 97.2993 38.4288 96.7375 38.5212C96.1757 38.6151 95.5708 38.7612 94.922 38.96C94.2731 39.159 93.7367 39.4882 93.312 39.9486C92.8881 40.4083 92.6756 40.9558 92.6756 41.5891ZM89.1689 41.6265C89.1689 39.7319 89.9698 38.2514 91.5715 37.1861C93.1734 36.1208 95.3817 35.5872 98.1978 35.5872C99.3949 35.5872 100.556 35.6625 101.678 35.8123C101.603 34.2001 101.164 33.043 100.359 32.3428C99.5544 31.6424 98.2343 31.2923 96.4009 31.2923C94.7373 31.2923 92.9678 31.6119 91.0925 32.2489V29.2479C92.9052 28.5602 94.8363 28.2169 96.8874 28.2169C99.5589 28.2169 101.623 28.9075 103.078 30.2887C104.533 31.67 105.26 33.6561 105.26 36.2436V41.7762C105.26 42.1897 105.219 42.5986 105.138 43.0047C105.056 43.4122 104.863 43.9338 104.554 44.5714C104.247 45.2092 103.83 45.7649 103.303 46.2403C102.776 46.7156 101.985 47.1254 100.932 47.4689C99.877 47.8131 98.6604 47.9844 97.2798 47.9844C95.8651 47.9844 94.6262 47.8056 93.5623 47.448C92.4985 47.0911 91.6974 46.6739 91.1596 46.1978C90.621 45.7209 90.1919 45.1563 89.8722 44.5043C89.5541 43.8517 89.3567 43.3132 89.2814 42.8862C89.2061 42.4608 89.1689 42.0406 89.1689 41.6265Z" fill="#23284C"/>
<path d="M108.672 47.6853V30.1447C111.332 28.8349 114.055 28.1793 116.84 28.1793C119.268 28.1793 121.17 28.8112 122.548 30.0739C123.925 31.3368 124.614 33.0874 124.614 35.3255V47.6853H121.032V35.0521C121.032 33.9249 120.743 33.0345 120.167 32.3828C119.59 31.7316 118.432 31.4052 116.69 31.4052C115.124 31.4052 113.62 31.6377 112.179 32.101V47.6853H108.672Z" fill="#23284C"/>
<path d="M128.965 47.6862V28.5177H132.473V47.6862H128.965ZM128.853 25.5548V21.8408H132.584V25.5548H128.853Z" fill="#007BC1"/>
<path d="M135.132 31.5144V28.5128H138.471V22.8297H141.978V28.5128H147.079V31.5144H141.978V42.5913C141.978 44.0836 142.921 44.8301 144.81 44.8301H144.848C145.723 44.8301 146.466 44.6431 147.079 44.2706V47.4496C146.204 47.8027 145.329 47.9808 144.454 47.9808H144.36C143.897 47.9808 143.403 47.9249 142.878 47.8124C142.353 47.7006 141.724 47.4786 140.993 47.1487C140.262 46.8179 139.658 46.2441 139.184 45.427C138.708 44.6089 138.471 43.5964 138.471 42.3857V31.5144H135.132Z" fill="#007BC1"/>
</svg>
