<svg width="97" height="142" viewBox="0 0 97 142" fill="none" xmlns="http://www.w3.org/2000/svg">
<g filter="url(#filter0_d_103_622)">
<path d="M23.7392 71.0517V22.2308C23.7392 20.6428 25.0437 19.3594 26.6517 19.3594H61.6084C63.2192 19.3594 64.5217 20.6428 64.5217 22.2308V58.1287C65.2502 58.1314 65.9724 58.1859 66.6715 58.2982C69.0919 58.6883 71.3641 59.7594 73.2462 61.2902H73.2608V16.4874C73.2608 10.141 68.0467 5 61.6084 5H26.6517C20.2169 5 15 10.141 15 16.4874V77.0508C17.4267 74.6295 20.6595 72.9926 24.2894 72.637C23.9692 72.1745 23.7392 71.6486 23.7392 71.0517ZM77.1557 68.2569C75.0115 67.9123 72.5386 68.7428 70.8432 70.1757C70.2462 67.7979 67.9649 65.7819 65.5033 65.3856C63.4611 65.0582 61.1393 65.7991 59.4648 67.1031C58.7105 64.817 56.2425 62.8981 53.8508 62.5135C51.5409 62.1434 48.392 63.3579 47.0434 65.0265L47.0462 46.8825C47.0462 44.3723 45.5458 41.9517 43.1163 41.1936C39.0935 39.9357 35.3909 42.8622 35.3909 46.6413V92.5902C32.1749 92.5902 29.565 90.0166 29.565 86.8461V81.6569C29.565 80.5569 28.6618 79.6671 27.5466 79.6671H25.7897C21.4404 79.6671 17.9126 83.1415 17.9126 87.4292V101.607C17.9126 104.089 18.999 106.449 20.893 108.086L28.7352 114.863C30.3285 116.239 32.3762 117 34.4967 117H66.7295C69.0458 117 71.2711 116.09 72.9085 114.476L79.4426 108.034C81.0792 106.42 82 104.229 82 101.944V74.2305C82 71.3674 80.0194 68.7166 77.1557 68.2569Z" fill="#1AA3F0"/>
</g>
<defs>
<filter id="filter0_d_103_622" x="0" y="0" width="97" height="142" filterUnits="userSpaceOnUse" color-interpolation-filters="sRGB">
<feFlood flood-opacity="0" result="BackgroundImageFix"/>
<feColorMatrix in="SourceAlpha" type="matrix" values="0 0 0 0 0 0 0 0 0 0 0 0 0 0 0 0 0 0 127 0" result="hardAlpha"/>
<feOffset dy="10"/>
<feGaussianBlur stdDeviation="7.5"/>
<feComposite in2="hardAlpha" operator="out"/>
<feColorMatrix type="matrix" values="0 0 0 0 0.587434 0 0 0 0 0.848244 0 0 0 0 0.996673 0 0 0 0.59 0"/>
<feBlend mode="normal" in2="BackgroundImageFix" result="effect1_dropShadow_103_622"/>
<feBlend mode="normal" in="SourceGraphic" in2="effect1_dropShadow_103_622" result="shape"/>
</filter>
</defs>
</svg>
