<svg width="131" height="125" viewBox="0 0 131 125" fill="none" xmlns="http://www.w3.org/2000/svg">
<g filter="url(#filter0_d_103_618)">
<path d="M114.597 40.2494H16.4026C15.6282 40.2494 15 40.8834 15 41.664V88.4336C15 94.6813 20.0251 99.7466 26.2224 99.7466H104.778C110.978 99.7466 116 94.6813 116 88.4336V41.664C116 40.8834 115.374 40.2494 114.597 40.2494ZM53.7786 79.7334C53.1134 80.3158 52.2912 80.6043 51.4751 80.6043C50.4961 80.6043 49.5225 80.1916 48.8296 79.3913L43.2181 72.8972C42.138 71.6475 42.0653 69.8086 43.0443 68.4734L48.6552 60.826C49.806 59.2532 52.0024 58.9253 53.5598 60.0847C55.1165 61.2441 55.4451 63.4591 54.2917 65.0291L50.3588 70.3971L54.118 74.7469C55.3886 76.2179 55.2371 78.4525 53.7786 79.7334ZM71.6893 61.0412L66.2629 80.8392C65.834 82.4058 64.4227 83.4329 62.8828 83.4329C62.5737 83.4329 62.2592 83.3908 61.9482 83.3059C60.0824 82.7853 58.9855 80.8392 59.5019 78.9555L64.925 59.1568C65.4414 57.2765 67.3658 56.1735 69.2397 56.6907C71.1055 57.2086 72.2024 59.1568 71.6893 61.0412ZM87.9584 71.5226L82.3475 79.1707C81.66 80.1095 80.5995 80.6043 79.5249 80.6043C78.801 80.6043 78.0718 80.3783 77.4436 79.9112C75.8862 78.7518 75.5583 76.5342 76.711 74.9675L80.6446 69.5995L76.8847 65.2498C75.6114 63.7788 75.7656 61.5442 77.2248 60.2633C78.6859 58.979 80.9025 59.1344 82.1731 60.6054L87.7846 67.0995C88.8647 68.3492 88.9374 70.1881 87.9584 71.5226Z" fill="#1AA3F0"/>
<path d="M104.778 5H26.2224C20.0251 5 15 10.0625 15 16.3136V31.7673C15 32.5506 15.6282 33.1819 16.4026 33.1819H114.597C115.374 33.1819 116 32.5506 116 31.7673V16.3136C116 10.0625 110.978 5 104.778 5ZM31.8333 24.7987C28.736 24.7987 26.2224 22.264 26.2224 19.1415C26.2224 16.0163 28.736 13.485 31.8333 13.485C34.9334 13.485 37.4442 16.0163 37.4442 19.1415C37.4442 22.264 34.9334 24.7987 31.8333 24.7987ZM50.0692 24.7987C46.9719 24.7987 44.4583 22.264 44.4583 19.1415C44.4583 16.0163 46.9719 13.485 50.0692 13.485C53.1692 13.485 55.6808 16.0163 55.6808 19.1415C55.6808 22.264 53.1692 24.7987 50.0692 24.7987Z" fill="#005586"/>
</g>
<defs>
<filter id="filter0_d_103_618" x="0" y="0" width="131" height="124.747" filterUnits="userSpaceOnUse" color-interpolation-filters="sRGB">
<feFlood flood-opacity="0" result="BackgroundImageFix"/>
<feColorMatrix in="SourceAlpha" type="matrix" values="0 0 0 0 0 0 0 0 0 0 0 0 0 0 0 0 0 0 127 0" result="hardAlpha"/>
<feOffset dy="10"/>
<feGaussianBlur stdDeviation="7.5"/>
<feComposite in2="hardAlpha" operator="out"/>
<feColorMatrix type="matrix" values="0 0 0 0 0.587434 0 0 0 0 0.848244 0 0 0 0 0.996673 0 0 0 0.59 0"/>
<feBlend mode="normal" in2="BackgroundImageFix" result="effect1_dropShadow_103_618"/>
<feBlend mode="normal" in="SourceGraphic" in2="effect1_dropShadow_103_618" result="shape"/>
</filter>
</defs>
</svg>
