<svg width="128" height="128" viewBox="0 0 128 128" fill="none" xmlns="http://www.w3.org/2000/svg">
<g filter="url(#filter0_d_103_623)">
<path d="M63.5242 5C36.7687 5 15 26.7687 15 53.5242C15 56.515 15.2759 59.5161 15.8212 62.4424C16.1944 64.4706 18.1629 65.8144 20.1707 65.4309C22.1965 65.0529 23.5355 63.1071 23.1598 61.0813C22.6994 58.6029 22.4653 56.06 22.4653 53.5242C22.4653 49.6368 23.0452 45.8893 24.058 42.3263H38.0951C37.652 45.9144 37.3958 49.6494 37.3958 53.5242C37.3958 55.5846 39.068 57.2568 41.1284 57.2568C43.1912 57.2568 44.861 55.5846 44.861 53.5242C44.861 49.816 45.1447 46.029 45.675 42.3263H59.7915V94.3961C56.9147 94.1351 54.0779 93.5947 51.3283 92.7412C49.3599 92.1291 47.2672 93.2339 46.658 95.2024C46.0483 97.1708 47.1454 99.2586 49.1162 99.8732C53.7668 101.317 58.6144 102.048 63.5242 102.048C90.2796 102.048 112.048 80.2796 112.048 53.5242C112.048 26.7687 90.2796 5 63.5242 5ZM39.3415 34.861H26.9993C31.2468 26.5818 38.2122 19.9377 46.7226 16.0982C43.4976 21.0724 40.9546 27.4877 39.3415 34.861ZM59.7915 34.861H47.1155C49.631 24.5709 54.1054 16.0133 59.7915 13.3485V34.861ZM100.051 34.861H87.7092C86.0967 27.4877 83.5531 21.0724 80.3287 16.0982C88.8385 19.9377 95.8039 26.5818 100.051 34.861ZM67.2568 13.3485C72.9453 16.0133 77.4197 24.5709 79.9352 34.861H67.2568V13.3485ZM67.2568 42.3263H81.3757C81.906 46.029 82.1873 49.816 82.1873 53.5242C82.1873 57.2317 81.906 61.0163 81.3757 64.722H67.2568V42.3263ZM67.2568 93.6991V72.1873H79.9352C77.4197 82.4744 72.9453 91.0319 67.2568 93.6991ZM80.3287 90.9472C83.5531 85.9729 86.0967 79.5576 87.7092 72.1873H100.051C95.8039 80.4636 88.8385 87.1076 80.3287 90.9472ZM88.9556 64.722C89.3963 61.131 89.6525 57.3959 89.6525 53.5242C89.6525 49.6494 89.3963 45.9144 88.9556 42.3263H102.993C104.006 45.8893 104.583 49.6368 104.583 53.5242C104.583 57.4085 104.006 61.156 102.993 64.722H88.9556Z" fill="#1AA3F0"/>
<path d="M49.0141 61.7482L26.5162 69.0665C24.4809 69.7282 24.1745 72.4808 26.0163 73.5731L31.5203 76.8376L18.7225 89.633C17.752 90.6041 17.752 92.179 18.7225 93.1519L20.6264 95.0558C21.5969 96.0263 23.1718 96.0263 24.1452 95.0558L37.0547 82.1481L40.2397 87.6777C41.3123 89.5411 44.0846 89.2574 44.7589 87.2173L52.1471 64.8962C52.7867 62.96 50.9551 61.1157 49.0141 61.7482Z" fill="#005586"/>
</g>
<defs>
<filter id="filter0_d_103_623" x="0" y="0" width="127.048" height="127.048" filterUnits="userSpaceOnUse" color-interpolation-filters="sRGB">
<feFlood flood-opacity="0" result="BackgroundImageFix"/>
<feColorMatrix in="SourceAlpha" type="matrix" values="0 0 0 0 0 0 0 0 0 0 0 0 0 0 0 0 0 0 127 0" result="hardAlpha"/>
<feOffset dy="10"/>
<feGaussianBlur stdDeviation="7.5"/>
<feComposite in2="hardAlpha" operator="out"/>
<feColorMatrix type="matrix" values="0 0 0 0 0.587434 0 0 0 0 0.848244 0 0 0 0 0.996673 0 0 0 0.59 0"/>
<feBlend mode="normal" in2="BackgroundImageFix" result="effect1_dropShadow_103_623"/>
<feBlend mode="normal" in="SourceGraphic" in2="effect1_dropShadow_103_623" result="shape"/>
</filter>
</defs>
</svg>
