<svg width="133" height="141" viewBox="0 0 133 141" fill="none" xmlns="http://www.w3.org/2000/svg">
<g filter="url(#filter0_d_103_615)">
<path d="M33.2435 97.0035V81.7675C32.2528 81.902 31.2508 81.9943 30.2246 81.9943C28.1963 81.9943 26.2419 81.6995 24.3726 81.1923V97.0035C24.3726 102.757 29.0153 107.437 34.7218 107.437H46.0532V98.4945H34.7218C33.9057 98.4945 33.2435 97.8263 33.2435 97.0035ZM77.1016 89.0328H59.3597C56.0952 89.0328 53.4459 91.7007 53.4459 94.9945V109.899C53.4459 113.19 56.0952 115.862 59.3597 115.862H77.1016C80.369 115.862 83.0154 113.19 83.0154 109.899V94.9945C83.0154 91.7007 80.369 89.0328 77.1016 89.0328Z" fill="#005586"/>
<path d="M59.3548 32.4046H77.0967C80.3641 32.4046 83.0105 29.7338 83.0105 26.4428V11.5372C83.0105 8.24333 80.3641 5.57544 77.0967 5.57544H59.3548C56.0903 5.57544 53.4411 8.24333 53.4411 11.5372V26.4428C53.4411 29.7338 56.0903 32.4046 59.3548 32.4046ZM62.8088 42.8379V45.8191C62.8088 48.2874 64.7924 50.2906 67.2443 50.2906C69.6927 50.2906 71.6798 48.2874 71.6798 45.8191V42.8379C71.6798 40.3667 69.6927 38.3663 67.2443 38.3663C64.7924 38.3663 62.8088 40.3667 62.8088 42.8379ZM116.922 57.1024L103.588 43.6606C103.012 43.0797 102.255 42.7906 101.498 42.7906C100.741 42.7906 99.9838 43.0797 99.4076 43.6606L88.4189 54.7386H44.7028C42.7931 48.4634 37.0681 43.8695 30.2197 43.8695C21.8129 43.8695 15 50.7378 15 59.2101C15 67.6845 21.8129 74.5535 30.2197 74.5535C37.071 74.5535 42.7959 69.9596 44.7028 63.6816H88.4161L99.4076 74.7588C99.9838 75.3433 100.741 75.6324 101.498 75.6324C102.255 75.6324 103.012 75.3433 103.588 74.7588L116.922 61.3206C118.075 60.1545 118.075 58.2678 116.922 57.1024ZM66.7504 71.158C64.2991 71.158 62.3149 73.1576 62.3149 75.6295V78.61C62.3149 81.0783 64.2991 83.0815 66.7504 83.0815C69.1988 83.0815 71.1858 81.0783 71.1858 78.61V75.6295C71.1858 73.1576 69.1988 71.158 66.7504 71.158Z" fill="#1AA3F0"/>
</g>
<defs>
<filter id="filter0_d_103_615" x="0" y="0.575439" width="132.787" height="140.286" filterUnits="userSpaceOnUse" color-interpolation-filters="sRGB">
<feFlood flood-opacity="0" result="BackgroundImageFix"/>
<feColorMatrix in="SourceAlpha" type="matrix" values="0 0 0 0 0 0 0 0 0 0 0 0 0 0 0 0 0 0 127 0" result="hardAlpha"/>
<feOffset dy="10"/>
<feGaussianBlur stdDeviation="7.5"/>
<feComposite in2="hardAlpha" operator="out"/>
<feColorMatrix type="matrix" values="0 0 0 0 0.587434 0 0 0 0 0.848244 0 0 0 0 0.996673 0 0 0 0.59 0"/>
<feBlend mode="normal" in2="BackgroundImageFix" result="effect1_dropShadow_103_615"/>
<feBlend mode="normal" in="SourceGraphic" in2="effect1_dropShadow_103_615" result="shape"/>
</filter>
</defs>
</svg>
